HIERARCHY
ROOT SpineBase
{
  OFFSET 0.000000 0.000000 0.000000
  CHANNELS 6 Xposition Yposition Zposition Zrotation Xrotation Yrotation
  JOINT SpineMid
  {
    OFFSET -0.000000 33.535715 0.000000
    CHANNELS 3 Zrotation Xrotation Yrotation
    JOINT SpineShoulder
    {
      OFFSET 0.142655 24.770874 -1.043514
      CHANNELS 3 Zrotation Xrotation Yrotation
      JOINT Neck
      {
        OFFSET 0.123713 8.169947 -0.741352
        CHANNELS 3 Zrotation Xrotation Yrotation
        JOINT Head
        {
          OFFSET 5.425979 12.841053 6.658366
          CHANNELS 3 Zrotation Xrotation Yrotation
          End Site
          {
            OFFSET 0 0 0
          }
        }
      }
      JOINT ShoulderLeft
      {
        OFFSET -10.358118 -2.200439 -12.795068
        CHANNELS 3 Zrotation Xrotation Yrotation
        JOINT ElbowLeft
        {
          OFFSET -8.311860 -26.816660 -8.797838
          CHANNELS 3 Zrotation Xrotation Yrotation
          JOINT WristLeft
          {
            OFFSET 1.799789 -24.734924 -6.939882
            CHANNELS 3 Zrotation Xrotation Yrotation
            JOINT HandLeft
            {
              OFFSET 0.884284 -4.719303 3.363597
              CHANNELS 3 Zrotation Xrotation Yrotation
              JOINT HandTipLeft
              {
                OFFSET 1.408234 -4.488446 1.235521
                CHANNELS 3 Zrotation Xrotation Yrotation
                End Site
                {
                  OFFSET 0 0 0
                }
              }
              JOINT ThumbLeft
              {
                OFFSET -3.108474 -0.900720 -5.433178
                CHANNELS 3 Zrotation Xrotation Yrotation
                End Site
                {
                  OFFSET 0 0 0
                }
              }
            }
          }
        }
      }
      JOINT ShoulderRight
      {
        OFFSET 11.344277 -6.486537 10.135812
        CHANNELS 3 Zrotation Xrotation Yrotation
        JOINT ElbowRight
        {
          OFFSET 1.687259 -30.470805 8.328100
          CHANNELS 3 Zrotation Xrotation Yrotation
          JOINT WristRight
          {
            OFFSET -0.614531 -25.312896 -2.557337
            CHANNELS 3 Zrotation Xrotation Yrotation
            JOINT HandRight
            {
              OFFSET -0.435889 -3.051971 1.178727
              CHANNELS 3 Zrotation Xrotation Yrotation
              JOINT HandTipRight
              {
                OFFSET 0.671241 -5.325703 -0.986025
                CHANNELS 3 Zrotation Xrotation Yrotation
                End Site
                {
                  OFFSET 0 0 0
                }
              }
              JOINT ThumbRight
              {
                OFFSET 2.519080 -1.823742 -2.536963
                CHANNELS 3 Zrotation Xrotation Yrotation
                End Site
                {
                  OFFSET 0 0 0
                }
              }
            }
          }
        }
      }
    }
  }
  JOINT HipLeft
  {
    OFFSET -4.884308 1.641519 -8.505639
    CHANNELS 3 Zrotation Xrotation Yrotation
    JOINT KneeLeft
    {
      OFFSET -13.601159 -30.860523 -12.516186
      CHANNELS 3 Zrotation Xrotation Yrotation
      JOINT AnkleLeft
      {
        OFFSET -9.348161 -37.407519 0.280865
        CHANNELS 3 Zrotation Xrotation Yrotation
        JOINT FootLeft
        {
          OFFSET 8.228519 -4.680170 -11.631552
          CHANNELS 3 Zrotation Xrotation Yrotation
          End Site
          {
            OFFSET 0 0 0
          }
        }
      }
    }
  }
  JOINT HipRight
  {
    OFFSET 6.022884 0.272708 -0.063490
    CHANNELS 3 Zrotation Xrotation Yrotation
    JOINT KneeRight
    {
      OFFSET -8.930283 -32.546959 1.711063
      CHANNELS 3 Zrotation Xrotation Yrotation
      JOINT AnkleRight
      {
        OFFSET -11.500828 -35.059448 6.817616
        CHANNELS 3 Zrotation Xrotation Yrotation
        JOINT FootRight
        {
          OFFSET -0.849291 -9.872576 -5.137269
          CHANNELS 3 Zrotation Xrotation Yrotation
          End Site
          {
            OFFSET 0 0 0
          }
        }
      }
    }
  }
}
MOTION
Frames: 10
Frame Time: 0.033333
-47.721766 82.319147 347.429519 0.934426 -1.605000 -37.911740 -0.136090 0.048273 37.969587 0.280365 -0.338026 0.085723 14.290936 -11.539012 -1.364169 0.000000 0.000000 0.000000 1.783911 -1.032435 -0.210051 -1.959975 2.203749 -0.211152 11.521047 -8.825049 7.737188 -21.506064 25.862444 -0.527761 0.000000 0.000000 0.000000 0.000000 0.000000 0.000000 100.108986 -40.813475 65.166316 178.045135 -54.639225 80.889325 89.194482 40.367696 19.024733 -56.789183 1.551004 -0.280864 0.000000 0.000000 0.000000 0.000000 0.000000 0.000000 1.976484 1.895344 36.933381 -3.679426 1.262884 0.958857 -2.766457 -1.712547 4.153155 0.000000 0.000000 0.000000 1.154214 4.280682 37.751979 -4.280898 -1.913281 0.334812 9.655742 4.693385 -6.178658 0.000000 0.000000 0.000000
-47.476288 82.480482 347.620610 1.233955 -1.946705 -37.887573 0.006076 0.005814 37.971876 0.358731 -0.439398 0.117677 14.217749 -11.948179 -1.172676 0.000000 0.000000 0.000000 1.551707 -1.189414 -0.108830 -1.250678 2.243230 -0.702357 8.249105 -10.037130 5.993129 -20.320011 27.437425 2.030019 0.000000 0.000000 0.000000 0.000000 0.000000 0.000000 101.080038 -41.042953 66.222887 -178.570227 -59.406931 78.919554 78.333957 49.863530 12.703252 -50.315034 -8.988591 5.627928 0.000000 0.000000 0.000000 0.000000 0.000000 0.000000 1.132708 1.970548 36.954009 -3.354510 1.033679 0.920306 -2.000695 -1.080651 3.227849 0.000000 0.000000 0.000000 0.404259 4.396809 37.678388 -4.085347 -2.140239 0.397211 9.098496 4.876876 -5.868607 0.000000 0.000000 0.000000
-47.279899 82.616696 347.754614 1.658203 -2.439495 -37.944609 0.150651 -0.031292 38.068215 0.417054 -0.516656 0.155213 13.433506 -11.622289 -1.102918 0.000000 0.000000 0.000000 1.105726 -1.121506 -0.015446 -0.545459 2.164614 -1.174234 4.412943 -13.134788 3.487870 -17.088414 29.136214 4.952188 0.000000 0.000000 0.000000 0.000000 0.000000 0.000000 102.218288 -41.902695 67.918760 -172.962296 -72.207691 72.615529 62.493372 61.621424 8.172581 -42.667744 -12.754509 35.649481 0.000000 0.000000 0.000000 0.000000 0.000000 0.000000 0.166016 2.050084 37.083341 -3.062920 0.879357 0.865567 -0.762405 -0.102595 1.737823 0.000000 0.000000 0.000000 -0.467250 4.519571 37.715321 -3.904968 -2.272933 0.439084 8.144230 4.744612 -5.302086 0.000000 0.000000 0.000000
-47.158688 82.748255 347.813147 2.162561 -3.001890 -38.078689 0.276032 -0.057746 38.251935 0.459363 -0.531695 0.193369 11.981881 -10.655425 -1.101102 0.000000 0.000000 0.000000 0.567160 -0.794405 0.001646 -0.089147 1.780462 -1.480198 -4.894976 -8.500765 -2.042045 -5.794552 23.185555 7.532755 0.000000 0.000000 0.000000 0.000000 0.000000 0.000000 103.567486 -43.379257 70.369435 -52.104410 -85.856951 162.705189 -17.832404 66.128794 47.844015 -26.338793 -38.296879 82.042604 0.000000 0.000000 0.000000 0.000000 0.000000 0.000000 -0.691766 2.074281 37.318885 -2.909938 0.903353 0.793810 0.885492 1.134143 -0.207507 0.000000 0.000000 0.000000 -1.376548 4.625234 37.856005 -3.725120 -2.316371 0.465378 7.713071 4.384029 -5.032734 0.000000 0.000000 0.000000
-47.052983 82.858860 347.855072 2.603701 -3.533219 -38.022654 0.389879 -0.074009 38.244477 0.444654 -0.478822 0.220935 10.804805 -9.748608 -1.138710 0.000000 0.000000 0.000000 -0.100283 -0.388204 0.063384 0.252891 1.402420 -1.681994 -16.198478 10.038919 -5.205797 5.167978 6.094327 11.002294 0.000000 0.000000 0.000000 0.000000 0.000000 0.000000 105.412409 -44.980650 73.425453 9.979649 -63.841278 148.653726 -11.405035 44.089442 14.280903 -8.026911 -28.224464 177.120272 0.000000 0.000000 0.000000 0.000000 0.000000 0.000000 -1.564786 2.176446 37.335465 -2.723083 0.820310 0.752494 2.885008 2.472557 -2.628187 0.000000 0.000000 0.000000 -2.142019 4.710551 37.827281 -3.560186 -2.274020 0.470179 7.615656 3.902833 -4.939177 0.000000 0.000000 0.000000
-47.008900 82.939873 347.870414 2.979074 -4.028343 -38.024780 0.429779 -0.060031 38.290196 0.381418 -0.376672 0.237032 9.926714 -9.102529 -1.117791 0.000000 0.000000 0.000000 -0.771466 0.204991 0.088785 0.583190 0.602980 -1.771938 -20.032280 27.557471 -1.103150 6.925119 -9.813658 9.598321 0.000000 0.000000 0.000000 0.000000 0.000000 0.000000 106.590051 -45.482924 75.025266 13.589140 -53.331662 63.018224 -36.508335 27.383663 59.580782 -2.019135 -48.774221 126.464919 0.000000 0.000000 0.000000 0.000000 0.000000 0.000000 -2.361023 2.356999 37.369941 -2.581762 0.684345 0.751778 1.298091 1.386242 -0.766290 0.000000 0.000000 0.000000 -2.762352 4.835100 37.865121 -3.495208 -2.236467 0.468456 7.511387 3.630268 -4.861589 0.000000 0.000000 0.000000
-47.052880 82.988844 347.817435 3.196120 -4.354406 -38.143670 0.406273 -0.027322 38.435077 0.262728 -0.201468 0.235223 9.852606 -9.143980 -1.071409 0.000000 0.000000 0.000000 -0.866903 0.563936 -0.004168 0.486597 0.245466 -1.660134 -19.924241 28.730544 -0.609396 7.132050 -11.237806 9.238118 0.000000 0.000000 0.000000 0.000000 0.000000 0.000000 106.761449 -45.213949 75.011931 7.102325 -42.026511 14.919598 -40.496088 10.180926 71.003157 -4.999828 -40.140709 -151.759173 0.000000 0.000000 0.000000 0.000000 0.000000 0.000000 -2.767514 2.507131 37.491882 -2.579082 0.639546 0.769323 1.310102 1.359634 -0.839443 0.000000 0.000000 0.000000 -3.008721 4.932879 38.031756 -3.610264 -2.122626 0.429284 7.232664 3.089829 -4.619589 0.000000 0.000000 0.000000
-47.175114 83.004792 347.725730 3.307007 -4.565946 -38.327708 0.465223 0.000126 38.635609 0.190728 -0.065821 0.235259 9.545376 -8.793858 -1.139195 0.000000 0.000000 0.000000 -1.005842 1.053389 -0.131273 0.235921 0.199470 -1.427386 -14.188204 23.939973 0.190395 -2.859248 -6.378710 3.423707 0.000000 0.000000 0.000000 0.000000 0.000000 0.000000 105.399317 -44.156287 72.903235 4.954813 -32.900657 -3.610150 -39.564470 3.984507 70.221909 3.662448 -47.619465 -152.531901 0.000000 0.000000 0.000000 0.000000 0.000000 0.000000 -2.936647 2.690701 37.624645 -2.683566 0.596063 0.829509 1.319630 1.335419 -0.902740 0.000000 0.000000 0.000000 -3.026261 5.041718 38.259631 -3.816869 -2.038278 0.395288 6.934348 2.708611 -4.400847 0.000000 0.000000 0.000000
-47.311113 83.062313 347.618297 3.325455 -4.662090 -38.660085 0.416022 0.026392 38.970738 0.107943 0.011200 0.227655 9.844965 -8.836198 -1.238493 0.000000 0.000000 0.000000 -0.964371 1.467965 -0.258705 -0.073920 -0.111575 -1.173702 -9.226662 21.614403 1.772327 -10.774234 -3.979193 -1.727326 0.000000 0.000000 0.000000 0.000000 0.000000 0.000000 103.054949 -42.431460 69.282028 3.574988 -29.697438 -6.962164 -34.840206 3.552349 66.412873 2.411198 -49.236272 -153.585643 0.000000 0.000000 0.000000 0.000000 0.000000 0.000000 -2.885824 2.844767 37.882416 -2.861631 0.594151 0.901974 1.335845 1.302888 -0.995920 0.000000 0.000000 0.000000 -2.936337 5.153853 38.614389 -3.989979 -2.023589 0.389134 6.943424 2.766405 -4.445738 0.000000 0.000000 0.000000
-47.415523 83.109810 347.529838 3.302366 -4.644400 -38.863562 0.332336 0.025250 39.169871 0.127609 -0.013288 0.224862 10.337646 -9.052031 -1.357353 0.000000 0.000000 0.000000 -0.812105 1.847855 -0.429981 -0.126543 -0.238036 -0.993548 -6.748301 17.732396 2.073336 -16.552354 -2.159528 -4.806973 0.000000 0.000000 0.000000 0.000000 0.000000 0.000000 102.341108 -41.114440 67.581757 2.065505 -28.540322 -6.641434 -31.095356 1.743845 65.257124 7.217121 -41.400021 -134.897323 0.000000 0.000000 0.000000 0.000000 0.000000 0.000000 -2.833176 2.958144 38.004008 -2.964520 0.514187 0.976347 1.350471 1.286267 -1.058554 0.000000 0.000000 0.000000 -2.774137 5.169900 38.834958 -4.086977 -1.998724 0.387843 7.226597 3.136558 -4.694127 0.000000 0.000000 0.000000
